<svg width="1560" height="1615" viewBox="0 0 1560 1615" fill="none" xmlns="http://www.w3.org/2000/svg">
<path fill-rule="evenodd" clip-rule="evenodd" d="M1510.02 1614.8C1599.22 1553.18 1529.98 1482.76 1466.01 1428.19C1295.24 1282.06 973.65 1126.55 770.603 1005.66C701.355 964.582 447.253 813.176 559.34 715.174C606.287 674.095 690.792 677.616 763.561 679.963C666.145 628.321 510.045 582.547 389.155 560.247C429.647 663.532 458.403 769.75 470.14 873.621C480.116 958.713 484.224 1151.2 353.358 1145.92C220.732 1139.46 33.529 812.003 8.2948 695.808C-36.892 489.826 133.292 447.574 292.326 455.203C223.079 283.258 120.968 123.637 1.83952 0.986816C139.161 120.703 259.463 282.671 344.555 459.31C359.226 461.071 373.311 462.832 386.808 465.179C490.679 482.197 906.163 589.003 916.14 703.437C925.529 816.697 708.397 748.037 628.587 780.313C659.103 824.326 778.232 904.137 818.137 932.892C1015.32 1073.73 1289.96 1233.36 1460.73 1394.74C1524.11 1455.77 1618.59 1552.6 1510.02 1614.8ZM326.95 550.271C307.584 547.924 289.979 546.163 274.134 545.576C51.1343 536.187 62.2843 647.687 155.592 811.416C180.24 854.255 309.932 1058.48 358.64 1053.19C385.634 1050.85 389.155 898.855 387.982 880.076C384.461 772.097 362.747 660.01 326.95 550.271Z" fill="white"/>
<path style="mix-blend-mode:multiply" opacity="0.75" d="M326.95 550.271C326.95 550.271 370.376 553.792 389.155 560.247C389.155 560.247 402.653 596.632 407.347 610.129C412.042 623.039 348.663 623.626 348.663 623.626" fill="url(#paint0_linear_28_3)"/>
<path style="mix-blend-mode:multiply" d="M276.482 418.232L322.842 415.297C322.842 415.297 343.382 457.55 344.555 459.311C344.555 459.311 305.237 455.789 292.326 455.203L276.482 417.058" fill="url(#paint1_linear_28_3)"/>
<path style="mix-blend-mode:multiply" d="M387.982 880.076C389.155 898.855 385.634 1050.85 358.64 1053.19C339.274 1055.54 306.411 1023.85 272.374 982.187C314.04 1038.52 370.376 1096.62 432.582 1112.47C481.29 1054.96 477.768 935.826 470.14 873.621C467.01 847.409 462.902 821.001 457.816 794.397C437.276 790.289 406.174 784.421 379.766 779.726C383.874 813.176 386.808 847.213 387.982 880.076Z" fill="url(#paint2_linear_28_3)"/>
<path style="mix-blend-mode:multiply" d="M634.455 777.966C703.703 756.253 855.695 794.397 902.055 747.45C847.479 715.76 797.011 692.874 758.866 677.616C760.431 678.398 761.996 679.181 763.561 679.963C690.792 677.616 606.287 674.095 559.339 715.174C554.058 719.282 549.95 723.976 546.429 728.084L634.455 777.966Z" fill="url(#paint3_linear_28_3)"/>
<path style="mix-blend-mode:multiply" d="M134.466 567.29C133.684 567.29 132.901 567.485 132.119 567.876C68.1528 591.35 28.2475 630.668 4.18701 672.921C5.3607 680.354 6.73 687.983 8.29491 695.808C15.337 726.911 33.5291 773.271 59.3502 824.326L146.203 794.984C87.5186 687.592 68.1528 604.847 134.466 567.29Z" fill="url(#paint4_linear_28_3)"/>
<defs>
<linearGradient id="paint0_linear_28_3" x1="333.147" y1="618.486" x2="321.649" y2="549.279" gradientUnits="userSpaceOnUse">
<stop stop-color="white"/>
<stop offset="1"/>
</linearGradient>
<linearGradient id="paint1_linear_28_3" x1="324.614" y1="413.854" x2="337.308" y2="475.384" gradientUnits="userSpaceOnUse">
<stop stop-color="white"/>
<stop offset="1"/>
</linearGradient>
<linearGradient id="paint2_linear_28_3" x1="657.295" y1="1101.87" x2="370.631" y2="1427.27" gradientUnits="userSpaceOnUse">
<stop stop-color="white"/>
<stop offset="1"/>
</linearGradient>
<linearGradient id="paint3_linear_28_3" x1="658.416" y1="745.959" x2="862.307" y2="477.942" gradientUnits="userSpaceOnUse">
<stop stop-color="white"/>
<stop offset="1"/>
</linearGradient>
<linearGradient id="paint4_linear_28_3" x1="-159.067" y1="762.045" x2="-170.528" y2="423.959" gradientUnits="userSpaceOnUse">
<stop stop-color="white"/>
<stop offset="1"/>
</linearGradient>
</defs>
</svg>
